<?xml version="1.0" standalone="no"?>
<!DOCTYPE svg PUBLIC "-//W3C//DTD SVG 20010904//EN"
 "http://www.w3.org/TR/2001/REC-SVG-20010904/DTD/svg10.dtd">
<svg version="1.0" xmlns="http://www.w3.org/2000/svg"
 width="500.000000pt" height="300.000000pt" viewBox="0 0 500.000000 300.000000"
 preserveAspectRatio="xMidYMid meet">

<g transform="translate(0.000000,300.000000) scale(0.100000,-0.100000)"
fill="#000000" stroke="none">
<path d="M3607 2873 c-39 -10 4 -96 58 -119 61 -25 65 -22 65 56 l0 70 -52 -1
c-29 -1 -61 -3 -71 -6z"/>
<path d="M3815 2691 c-20 -4 -26 -9 -17 -14 9 -6 12 -76 12 -291 0 -239 -2
-285 -15 -296 -27 -22 -6 -28 88 -24 50 2 93 4 95 4 2 0 -4 10 -12 22 -13 18
-16 52 -16 168 1 224 29 357 84 395 43 31 97 9 121 -50 5 -11 11 -133 14 -270
6 -248 6 -251 34 -308 44 -89 116 -132 242 -144 55 -5 63 -3 93 22 35 29 41
55 17 75 -21 17 -59 5 -74 -24 -29 -53 -96 -59 -127 -11 -29 44 -36 97 -43
335 -6 225 -8 237 -33 292 -32 69 -82 106 -156 115 -69 8 -108 -10 -143 -66
l-29 -45 0 62 0 62 -52 -1 c-29 -1 -66 -4 -83 -8z"/>
<path d="M142 2616 c-5 -39 -6 -74 -3 -79 4 -4 18 9 32 30 32 51 63 65 123 59
61 -7 90 -26 116 -76 19 -37 20 -58 20 -357 0 -272 -2 -322 -16 -341 -8 -12
-24 -22 -35 -22 -33 0 -21 -19 19 -29 73 -19 245 -52 249 -47 3 2 -10 18 -29
34 l-33 30 0 342 0 342 29 25 c24 20 35 23 70 18 69 -11 127 -53 155 -113 30
-62 45 -67 37 -12 -19 130 -15 120 -48 120 -100 0 -404 61 -572 114 l-104 33
-10 -71z"/>
<path d="M3574 2664 c14 -13 16 -55 16 -300 0 -183 -4 -284 -10 -284 -5 0 -10
-6 -10 -14 0 -12 16 -14 93 -9 50 3 94 7 96 9 2 2 -2 11 -10 20 -11 13 -15 76
-19 280 -5 261 -5 263 -29 288 -21 22 -33 26 -83 26 -54 0 -58 -1 -44 -16z"/>
<path d="M3287 2646 c-49 -18 -69 -37 -98 -92 -13 -24 -26 -44 -29 -44 -3 1
-14 15 -25 33 -29 46 -79 69 -137 63 -64 -7 -103 -29 -138 -78 l-30 -41 0 41
c0 22 -3 42 -7 45 -5 2 -43 -3 -86 -11 -68 -12 -76 -16 -65 -30 19 -23 19
-572 -1 -595 -17 -22 -11 -22 92 -2 43 8 82 15 85 15 3 0 1 5 -6 12 -20 20
-16 430 4 498 19 65 81 133 115 128 41 -6 59 -46 69 -158 14 -155 12 -368 -4
-412 -8 -21 -11 -38 -8 -38 8 0 134 20 161 26 17 4 21 8 12 13 -9 6 -12 62 -9
247 3 238 3 239 30 291 31 59 60 83 100 83 56 0 66 -49 76 -370 7 -210 9 -228
31 -266 35 -63 87 -88 182 -87 90 0 132 19 163 72 17 30 17 34 3 48 -22 22
-47 9 -89 -47 -30 -40 -38 -45 -73 -45 -64 0 -69 19 -76 300 -4 132 -10 254
-14 270 -13 51 -43 101 -70 119 -36 24 -112 29 -158 12z"/>
<path d="M4473 2619 c-39 -11 -84 -55 -109 -106 -15 -31 -19 -60 -19 -158 0
-113 2 -123 30 -178 37 -75 117 -149 193 -178 81 -32 193 -33 244 -1 173 108
92 482 -127 583 -49 23 -93 24 -123 3 -31 -22 -31 -98 1 -145 30 -45 71 -68
94 -53 22 14 20 46 -3 59 -76 45 -94 91 -48 122 25 16 28 16 63 -3 53 -28 80
-90 92 -211 16 -170 -17 -328 -75 -354 -37 -17 -88 -3 -123 34 -67 70 -87 153
-81 328 5 144 26 207 77 237 17 9 31 20 31 25 0 10 -78 7 -117 -4z"/>
<path d="M1815 2573 c-150 -54 -253 -165 -291 -313 -23 -92 -16 -237 17 -305
34 -72 104 -138 170 -161 61 -21 161 -23 225 -6 46 13 120 74 147 120 26 46 3
48 -27 2 -57 -86 -156 -121 -233 -81 -93 47 -143 149 -151 308 -7 160 20 269
89 348 90 102 242 98 290 -8 10 -23 19 -53 19 -67 0 -42 -37 -108 -72 -130
-55 -33 -85 -28 -171 32 -16 11 -21 10 -38 -11 -10 -13 -19 -38 -19 -57 0 -45
25 -57 111 -52 91 5 141 39 186 127 38 73 41 117 13 176 -38 79 -161 115 -265
78z"/>
<path d="M2585 2533 c-11 -2 -44 -9 -72 -14 l-53 -10 0 -41 c0 -40 0 -40 -17
-19 -10 12 -35 28 -57 35 -36 12 -42 11 -96 -15 -32 -15 -73 -41 -92 -58 -73
-64 -116 -203 -103 -330 19 -181 91 -262 205 -231 62 17 98 59 141 165 l11 30
13 -55 c19 -79 63 -105 143 -84 19 5 20 9 10 22 -21 24 -24 542 -4 582 15 31
13 32 -29 23z m-165 -100 c33 -42 43 -99 38 -223 -7 -172 -54 -280 -122 -280
-71 0 -100 71 -100 245 0 160 17 228 69 273 31 28 38 30 65 21 17 -6 39 -22
50 -36z"/>
<path d="M640 2382 c0 -6 5 -14 10 -17 6 -4 10 -81 10 -198 0 -276 28 -371
124 -416 100 -48 178 -34 215 37 l20 37 1 -51 0 -51 38 -7 c20 -3 57 -6 81 -6
38 0 42 2 35 18 -5 9 -10 140 -12 291 -2 238 -1 277 13 298 9 14 15 26 13 28
-2 1 -45 6 -95 9 -80 6 -93 5 -93 -8 0 -8 5 -18 10 -21 13 -8 13 -330 0 -415
-26 -161 -122 -233 -175 -131 -34 67 -51 516 -20 557 22 29 19 31 -37 38 -29
4 -72 9 -95 12 -27 4 -43 2 -43 -4z"/>
<path d="M3462 1863 c-37 -4 -42 -7 -35 -21 11 -22 10 -654 -1 -713 -20 -108
78 -184 174 -134 34 18 50 43 50 79 0 56 -77 88 -113 48 -28 -31 -19 -82 14
-82 21 0 26 29 8 47 -15 15 -3 33 21 33 50 0 66 -66 24 -99 -38 -30 -80 -27
-115 8 -53 53 -28 155 51 207 l40 27 0 303 0 304 -37 -2 c-21 -1 -58 -3 -81
-5z"/>
<path d="M2548 1718 c-55 -10 -58 -12 -58 -40 0 -46 48 -88 99 -88 l41 0 0 70
c0 50 -4 70 -12 69 -7 -1 -39 -6 -70 -11z"/>
<path d="M2774 1682 c-6 -4 -15 -21 -18 -39 -9 -40 -52 -83 -83 -83 -32 0 -41
-27 -15 -46 19 -13 20 -26 24 -281 5 -280 9 -314 52 -361 33 -37 70 -52 131
-52 53 0 77 15 34 22 -12 2 -31 16 -43 31 -20 28 -21 39 -21 355 l0 326 33 10
c46 13 43 39 -3 30 l-35 -6 0 51 c0 46 -2 51 -22 51 -13 0 -28 -4 -34 -8z"/>
<path d="M3283 1653 l-43 -4 0 -45 0 -44 -29 32 c-26 29 -35 33 -78 32 -94 -1
-185 -71 -236 -181 -19 -41 -22 -65 -22 -173 0 -114 2 -130 26 -181 37 -79 74
-103 150 -97 72 5 107 34 147 121 29 64 42 72 42 27 0 -38 24 -86 49 -100 21
-11 104 -14 114 -4 3 4 0 13 -8 21 -12 12 -15 62 -15 289 0 171 4 283 10 295
12 21 2 22 -107 12z m-100 -69 c40 -40 52 -88 52 -209 0 -179 -51 -305 -124
-305 -40 0 -76 45 -92 114 -16 72 -7 276 15 336 34 91 96 117 149 64z"/>
<path d="M1823 1591 c-24 -4 -45 -10 -49 -13 -10 -10 15 -74 36 -93 10 -9 37
-19 59 -22 l41 -6 0 72 c0 80 4 77 -87 62z"/>
<path d="M1385 1520 c-42 -21 -66 -53 -96 -129 l-18 -46 -1 94 0 94 -61 -7
c-34 -3 -73 -6 -86 -6 -20 0 -22 -3 -13 -19 14 -26 14 -747 0 -756 -5 -3 -10
-13 -10 -22 0 -13 13 -14 98 -8 53 4 99 9 101 10 1 2 -4 14 -13 27 -13 19 -16
54 -16 203 0 202 11 319 40 415 35 117 94 174 151 146 51 -25 109 -191 109
-309 0 -44 -1 -45 -38 -51 -179 -28 -296 -199 -234 -339 30 -67 69 -89 154
-85 55 3 75 9 110 34 96 67 147 190 155 374 10 224 -57 357 -197 389 -65 15
-90 13 -135 -9z m181 -461 c-19 -205 -141 -338 -226 -247 -27 29 -35 83 -21
137 22 84 81 141 172 165 86 23 83 26 75 -55z"/>
<path d="M2477 1513 c-15 -4 -16 -7 -5 -20 10 -12 14 -83 16 -285 3 -237 1
-272 -13 -295 -9 -13 -14 -27 -12 -29 10 -11 187 30 187 43 0 7 -4 13 -10 13
-6 0 -10 86 -10 238 0 250 -7 302 -43 327 -20 14 -71 18 -110 8z"/>
<path d="M2360 1474 l-32 -37 -34 17 c-72 34 -183 10 -256 -54 -106 -93 -127
-280 -42 -365 l33 -34 -29 -31 c-59 -63 -47 -135 28 -159 39 -12 58 -10 198
14 178 31 204 28 204 -25 0 -39 -34 -74 -103 -105 -113 -52 -227 -68 -292 -41
-40 17 -55 41 -48 80 l6 29 -31 -21 c-51 -37 -109 -52 -198 -52 -62 0 -87 -4
-98 -16 -37 -37 1 -84 68 -84 54 0 99 15 155 52 24 16 44 28 45 26 1 -2 8 -23
15 -47 17 -57 51 -87 117 -102 106 -24 230 17 310 103 56 60 74 102 74 173 0
66 -18 114 -54 142 -43 35 -86 36 -202 8 -130 -31 -174 -33 -174 -6 0 29 22
40 101 51 139 17 211 58 253 142 36 73 37 183 1 246 l-24 43 25 9 c14 6 36 10
50 10 28 0 33 29 8 54 -23 24 -39 20 -74 -20z m-137 -44 c35 -28 51 -103 45
-221 -5 -114 -26 -165 -80 -194 -30 -16 -40 -17 -62 -7 -45 20 -60 65 -60 182
1 115 13 173 45 215 37 46 74 55 112 25z"/>
<path d="M1771 1391 c-31 -5 -33 -7 -18 -20 15 -12 17 -45 17 -295 0 -204 -3
-285 -12 -294 -21 -21 -2 -24 84 -12 94 14 108 21 84 45 -14 14 -16 49 -16
270 0 249 0 254 -22 279 -25 27 -66 37 -117 27z"/>
</g>
</svg>
